<?xml version="1.0" encoding="utf-8"?>
<svg viewBox="0 0 500 500" width="500" height="500" xmlns="http://www.w3.org/2000/svg">
  <rect width="500" height="500" style="stroke: rgba(0, 187, 255, 0); fill: rgb(18, 25, 33);"/>
  <path style="fill: rgb(255, 255, 255); stroke: rgb(24, 17, 17); stroke-width: 0px;" d="M 119.046 114.665 L 378.646 112.395 L 358.134 379.156 L 247.396 410.925 L 141.65 382.333 L 119.046 114.665 Z"/>
  <path style="stroke: rgb(0, 0, 0); fill: rgb(18, 25, 33); stroke-width: 0px;" d="M 159.209 201.591 L 219.913 183.078 L 196.524 249.619 L 204.917 269.616 L 219.735 247.12 L 214.2 237.836 L 232.947 181.595 L 284.902 179.094 L 272.405 231.408 L 266.691 235.693 L 268.657 275.864 L 286.81 240.059 L 282.976 232.761 L 297.045 179.987 L 360.783 190.343 L 347.928 238.192 L 340.429 240.87 L 287.582 338.712 L 238.126 326.57 L 231.697 295.862 L 217.593 326.393 L 163.494 347.996 L 153.675 264.795 L 145.64 259.796 L 159.209 201.591 Z"/>
</svg>