<?xml version="1.0" encoding="utf-8"?>
<svg viewBox="124.547 106.362 259.6 298.53" width="259.6" height="298.53" xmlns="http://www.w3.org/2000/svg">
  <path style="stroke-width: 5px; fill: rgb(255, 255, 255); stroke: rgb(255, 255, 255);" d="M 124.547 108.632 L 384.147 106.362 L 363.635 373.123 L 252.897 404.892 L 147.151 376.3 L 124.547 108.632 Z"/>
  <path style="stroke-width: 5px; stroke: rgba(0, 0, 0, 0); fill: rgb(24, 20, 28);" d="M 164.71 195.558 L 225.414 177.045 L 202.025 243.586 L 210.418 263.583 L 225.236 241.087 L 219.701 231.803 L 238.448 175.562 L 290.403 173.061 L 277.906 225.375 L 272.192 229.66 L 274.158 269.831 L 292.311 234.026 L 288.477 226.728 L 302.546 173.954 L 366.284 184.31 L 353.429 232.159 L 345.93 234.837 L 293.083 332.679 L 243.627 320.537 L 237.198 289.829 L 223.094 320.36 L 168.995 341.963 L 159.176 258.762 L 151.141 253.763 L 164.71 195.558 Z"/>
</svg>